# xmcd CD database file
#
# Track frame offsets:
#	150
#	22587
#	40990
#	63262
#	83732
#	98177
#	109822
#	159595
#	182172
#	202382
#	221105
#	242442
#	256650
#	279677
#	305375
#
# Disc length: 4326 seconds
#
# Revision: 5
# Processed by: cddbd v1.5PL3 Copyright (c) Steve Scherf et al.
# Submitted via: CDex 1.50Beta5
#
DISCID=cb10e40f
DTITLE=あがた森魚 - 20世紀漂流記
DYEAR=1900
DGENRE=JPop
TTITLE0=Mezcal(はじめに歌ありて)
TTITLE1=赤色エレジー
TTITLE2=君はハートのクィーンだよ
TTITLE3=大寒町
TTITLE4=最后のダンスステップ
TTITLE5=リラのホテル
TTITLE6=いとしの第六惑星
TTITLE7=春の嵐の夜の手品師
TTITLE8=水晶になりたい
TTITLE9=百合コレクション
TTITLE10=パール・デコレーションの庭
TTITLE11=夜のレクエドル
TTITLE12=キットキット!!遠く遠く!!
TTITLE13=1970ハネディアン
TTITLE14=港のロキシー
EXTD=
EXTT0=
EXTT1=
EXTT2=
EXTT3=
EXTT4=
EXTT5=
EXTT6=
EXTT7=
EXTT8=
EXTT9=
EXTT10=
EXTT11=
EXTT12=
EXTT13=
EXTT14=
PLAYORDER=
